<svg xmlns="http://www.w3.org/2000/svg" viewBox="1911 4862.005 24.193 24.193">
  <defs>
    <style>
      .cls-1 {
        fill: none;
      }

      .cls-2 {
        fill: #00C60F;
        fill-rule: evenodd;
      }
    </style>
  </defs>
  <g id="if_Android_1298724" transform="translate(1911 4862.005)">
    <g id="Android_1_" transform="translate(0 0)">
      <rect id="Rectangle_112" data-name="Rectangle 112" class="cls-1" width="24.193" height="24.193" transform="translate(0 0)"/>
      <path id="Android" class="cls-2" d="M27.726,7.648a1.424,1.424,0,0,0-1.444,1.4v6.01a1.444,1.444,0,0,0,2.886,0V9.052A1.424,1.424,0,0,0,27.726,7.648Zm-18.282,0A1.424,1.424,0,0,0,8,9.052v6.01a1.444,1.444,0,0,0,2.886,0V9.052A1.424,1.424,0,0,0,9.444,7.648Zm2.509,0h-.1v10.3a1.505,1.505,0,0,0,1.524,1.484h1.1a1.319,1.319,0,0,0-.058.39v2.966a1.445,1.445,0,0,0,2.888,0V19.823a1.371,1.371,0,0,0-.058-.39h2.68a1.37,1.37,0,0,0-.057.39v2.966a1.445,1.445,0,0,0,2.888,0V19.823a1.32,1.32,0,0,0-.06-.39h1.1a1.5,1.5,0,0,0,1.523-1.484V7.648ZM21.9,2.025l.269-.4.269-.39.6-.876A.229.229,0,0,0,22.967.04.241.241,0,0,0,22.636.1l-.915,1.333-.275.4a8.253,8.253,0,0,0-5.723,0l-.273-.4-.27-.394L14.536.1A.246.246,0,0,0,14.2.04a.231.231,0,0,0-.067.324l.6.876L15,1.63l.27.4a5.332,5.332,0,0,0-3.423,4.687H25.319A5.332,5.332,0,0,0,21.9,2.025ZM15.7,4.839a.7.7,0,1,1,.722-.7A.712.712,0,0,1,15.7,4.839Zm5.773,0a.7.7,0,1,1,.722-.7A.712.712,0,0,1,21.471,4.839Z" transform="translate(-6.488 0)"/>
    </g>
  </g>
</svg>
