<svg xmlns="http://www.w3.org/2000/svg" viewBox="1839 4862.005 19.701 24.193">
  <defs>
    <style>
      .cls-1 {
        fill: #FDBC00;
      }
    </style>
  </defs>
  <path id="Path_6386" data-name="Path 6386" class="cls-1" d="M2.546,21.131c-2.079-3-3.667-8.49-1.533-12.191A5.919,5.919,0,0,1,6.018,5.907C7.58,5.879,9.056,6.96,10.01,6.96s2.749-1.3,4.632-1.11a5.652,5.652,0,0,1,4.425,2.4,5.48,5.48,0,0,0-2.612,4.609A5.343,5.343,0,0,0,19.7,17.748a13.372,13.372,0,0,1-1.676,3.441c-1.008,1.474-2.053,2.94-3.7,2.971-1.621.031-2.142-.96-3.994-.96s-2.431.931-3.964.991l-.085,0C4.732,24.193,3.544,22.573,2.546,21.131ZM9.819,5.575A5.075,5.075,0,0,1,11.1,1.832,5.421,5.421,0,0,1,14.668,0a5.337,5.337,0,0,1-1.26,3.863,4.591,4.591,0,0,1-3.345,1.722Q9.941,5.585,9.819,5.575Z" transform="translate(1839 4862.005)"/>
</svg>
