<svg xmlns="http://www.w3.org/2000/svg" viewBox="1740.516 4864.484 14.969 23.031">
  <defs>
    <style>
      .cls-1 {
        fill: #00A9F7;
        stroke: rgba(0,0,0,0);
      }
    </style>
  </defs>
  <path id="Path_6412" data-name="Path 6412" class="cls-1" d="M17.016-5.016V-18.984H6.984V-5.016Zm0-17.953a1.891,1.891,0,0,1,1.383.586A1.891,1.891,0,0,1,18.984-21V-3A1.969,1.969,0,0,1,18.4-1.594a1.856,1.856,0,0,1-1.383.609H6.984A1.856,1.856,0,0,1,5.6-1.594,1.969,1.969,0,0,1,5.016-3V-21A1.969,1.969,0,0,1,5.6-22.406a1.856,1.856,0,0,1,1.383-.609Z" transform="translate(1736 4888)"/>
</svg>
