<svg xmlns="http://www.w3.org/2000/svg" viewBox="1665.516 4867.484 20.969 17.031">
  <defs>
    <style>
      .cls-1 {
        fill: #46CEE2;
        stroke: rgba(0,0,0,0);
      }
    </style>
  </defs>
  <path id="Path_6411" data-name="Path 6411" class="cls-1" d="M20.016-6v-9H15.984v9ZM15-11.016V-15H3.984v3.984ZM15-6V-9.984H3.984V-6Zm5.016-14.016a1.856,1.856,0,0,1,1.383.609A1.969,1.969,0,0,1,21.984-18V-6A1.969,1.969,0,0,1,21.4-4.594a1.856,1.856,0,0,1-1.383.609H3.984A1.856,1.856,0,0,1,2.6-4.594,1.969,1.969,0,0,1,2.016-6V-18A1.969,1.969,0,0,1,2.6-19.406a1.856,1.856,0,0,1,1.383-.609Z" transform="translate(1664 4888)"/>
</svg>
